<svg width="20" height="20" viewBox="0 0 20 20" fill="none" xmlns="http://www.w3.org/2000/svg">
<path d="M12.7927 19V15.4C12.9143 14.2726 12.6005 13.1411 11.919 12.25C14.5403 12.25 17.1615 10.45 17.1615 7.3C17.2314 6.175 16.9256 5.068 16.2878 4.15C16.5324 3.115 16.5324 2.035 16.2878 1C16.2878 1 15.414 1 13.6665 2.35C11.3598 1.9 8.98315 1.9 6.67642 2.35C4.9289 1 4.05514 1 4.05514 1C3.79302 2.035 3.79302 3.115 4.05514 4.15C3.41894 5.0643 3.11015 6.17751 3.18138 7.3C3.18138 10.45 5.80266 12.25 8.42394 12.25C8.08318 12.691 7.82978 13.195 7.68125 13.735C7.53271 14.275 7.48902 14.842 7.55018 15.4V19" stroke="white" stroke-width="1.66667" stroke-linecap="round" stroke-linejoin="round"/>
<path d="M7.17133 15.5625C3.30561 17.125 2.88561 14 1.17133 14" stroke="white" stroke-width="1.66667" stroke-linecap="round" stroke-linejoin="round"/>
</svg>
