<svg width="20" height="20" viewBox="0 0 20 20" fill="none" xmlns="http://www.w3.org/2000/svg">
<path d="M13.5 6.08334C14.9587 6.08334 16.3576 6.66686 17.3891 7.70552C18.4205 8.74418 19 10.1529 19 11.6218V18.0833H15.3333V11.6218C15.3333 11.1322 15.1402 10.6626 14.7964 10.3164C14.4525 9.97016 13.9862 9.77565 13.5 9.77565C13.0138 9.77565 12.5475 9.97016 12.2036 10.3164C11.8598 10.6626 11.6667 11.1322 11.6667 11.6218V18.0833H8V11.6218C8 10.1529 8.57946 8.74418 9.61091 7.70552C10.6424 6.66686 12.0413 6.08334 13.5 6.08334Z" stroke="white" stroke-width="1.66667" stroke-linecap="round" stroke-linejoin="round"/>
<path d="M5 7.08334H1V18.0833H5V7.08334Z" stroke="white" stroke-width="1.66667" stroke-linecap="round" stroke-linejoin="round"/>
<path d="M3 5.08334C4.10457 5.08334 5 4.18791 5 3.08334C5 1.97877 4.10457 1.08334 3 1.08334C1.89543 1.08334 1 1.97877 1 3.08334C1 4.18791 1.89543 5.08334 3 5.08334Z" stroke="white" stroke-width="1.66667" stroke-linecap="round" stroke-linejoin="round"/>
</svg>
