<svg width="20" height="20" viewBox="0 0 20 20" fill="none" xmlns="http://www.w3.org/2000/svg">
<g clip-path="url(#clip0_1028_262)">
<path d="M18.9993 10.4793C18.9055 12.2166 18.3105 13.8896 17.2862 15.296C16.2619 16.7024 14.8521 17.782 13.2273 18.4043C11.6025 19.0265 9.8323 19.1649 8.13058 18.8025C6.42886 18.4402 4.86853 17.5927 3.63819 16.3625C2.40785 15.1323 1.56019 13.572 1.19767 11.8703C0.835149 10.1686 0.973294 8.39837 1.5954 6.77352C2.21751 5.14867 3.29695 3.7388 4.70323 2.71434C6.10952 1.68989 7.78244 1.0947 9.51976 1.00073C9.92504 0.978712 10.1372 1.46104 9.92204 1.80428C9.20244 2.95563 8.89431 4.31688 9.04794 5.66589C9.20157 7.0149 9.80788 8.27202 10.7679 9.23208C11.728 10.1921 12.9851 10.7985 14.3341 10.9521C15.6831 11.1057 17.0444 10.7976 18.1957 10.078C18.54 9.86283 19.0213 10.074 18.9993 10.4793Z" stroke="white" stroke-width="1.66667" stroke-linecap="round" stroke-linejoin="round"/>
</g>
<defs>
<clipPath id="clip0_1028_262">
<rect width="20" height="20" fill="white"/>
</clipPath>
</defs>
</svg>
