<svg width="20" height="20" viewBox="0 0 20 20" fill="none" xmlns="http://www.w3.org/2000/svg">
<g clip-path="url(#clip0_16_18)">
<path d="M10 19C7.61305 19 5.32387 18.0518 3.63604 16.364C1.94821 14.6761 1 12.3869 1 10C1 7.61305 1.94821 5.32387 3.63604 3.63604C5.32387 1.94821 7.61305 1 10 1C12.3869 1 14.6761 1.85339 16.364 3.37243C18.0518 4.89148 19 6.95175 19 9.1C19 10.2935 18.5259 11.4381 17.682 12.282C16.8381 13.1259 15.6935 13.6 14.5 13.6H12.475C12.1825 13.6 11.8958 13.6814 11.647 13.8352C11.3982 13.989 11.1971 14.209 11.0663 14.4706C10.9355 14.7323 10.8801 15.0251 10.9064 15.3164C10.9326 15.6078 11.0395 15.886 11.215 16.12L11.485 16.48C11.6605 16.714 11.7674 16.9922 11.7936 17.2836C11.8199 17.5749 11.7645 17.8677 11.6337 18.1294C11.5029 18.391 11.3018 18.611 11.053 18.7648C10.8042 18.9185 10.5175 19 10.225 19H10Z" stroke="white" stroke-width="1.66667" stroke-linecap="round" stroke-linejoin="round"/>
<path d="M11.25 5.83333C11.4801 5.83333 11.6667 5.64679 11.6667 5.41667C11.6667 5.18655 11.4801 5 11.25 5C11.0199 5 10.8333 5.18655 10.8333 5.41667C10.8333 5.64679 11.0199 5.83333 11.25 5.83333Z" fill="white" stroke="white" stroke-width="1.66667" stroke-linecap="round" stroke-linejoin="round"/>
<path d="M14.5833 9.16668C14.8135 9.16668 15 8.98013 15 8.75001C15 8.51989 14.8135 8.33334 14.5833 8.33334C14.3532 8.33334 14.1667 8.51989 14.1667 8.75001C14.1667 8.98013 14.3532 9.16668 14.5833 9.16668Z" fill="white" stroke="white" stroke-width="1.66667" stroke-linecap="round" stroke-linejoin="round"/>
<path d="M5.41667 10.8333C5.64679 10.8333 5.83333 10.6468 5.83333 10.4167C5.83333 10.1865 5.64679 10 5.41667 10C5.18655 10 5 10.1865 5 10.4167C5 10.6468 5.18655 10.8333 5.41667 10.8333Z" fill="white" stroke="white" stroke-width="1.66667" stroke-linecap="round" stroke-linejoin="round"/>
<path d="M7.08334 6.66668C7.31346 6.66668 7.50001 6.48013 7.50001 6.25001C7.50001 6.01989 7.31346 5.83334 7.08334 5.83334C6.85322 5.83334 6.66667 6.01989 6.66667 6.25001C6.66667 6.48013 6.85322 6.66668 7.08334 6.66668Z" fill="white" stroke="white" stroke-width="1.66667" stroke-linecap="round" stroke-linejoin="round"/>
</g>
<defs>
<clipPath id="clip0_16_18">
<rect width="20" height="20" fill="white"/>
</clipPath>
</defs>
</svg>
