<svg width="20" height="20" viewBox="0 0 20 20" fill="none" xmlns="http://www.w3.org/2000/svg">
<path d="M2.89158 11.7995C2.72344 11.8001 2.55858 11.7524 2.41617 11.6618C2.27375 11.5713 2.15962 11.4417 2.08704 11.2882C2.01446 11.1346 1.98641 10.9633 2.00614 10.7942C2.02587 10.6251 2.09258 10.4651 2.19851 10.3329L10.9952 1.1553C11.0612 1.07818 11.1511 1.02606 11.2502 1.0075C11.3493 0.988945 11.4516 1.00505 11.5405 1.05318C11.6294 1.10131 11.6994 1.1786 11.7392 1.27237C11.779 1.36614 11.7861 1.4708 11.7593 1.5692L10.0533 6.98578C10.003 7.12212 9.98611 7.26878 10.0041 7.41318C10.022 7.55758 10.0743 7.69541 10.1565 7.81485C10.2386 7.93429 10.3481 8.03178 10.4756 8.09894C10.6031 8.1661 10.7448 8.20094 10.8886 8.20047H17.1084C17.2766 8.19989 17.4414 8.24763 17.5838 8.33815C17.7262 8.42867 17.8404 8.55826 17.913 8.71184C17.9855 8.86543 18.0136 9.03672 17.9939 9.20581C17.9741 9.37491 17.9074 9.53486 17.8015 9.66709L9.00482 18.8447C8.93884 18.9218 8.84892 18.9739 8.74982 18.9925C8.65073 19.0111 8.54835 18.9949 8.45949 18.9468C8.37063 18.8987 8.30057 18.8214 8.26081 18.7276C8.22104 18.6339 8.21394 18.5292 8.24067 18.4308L9.94669 13.0142C9.99699 12.8779 10.0139 12.7312 9.99592 12.5868C9.97795 12.4424 9.92566 12.3046 9.84353 12.1851C9.76141 12.0657 9.65189 11.9682 9.52438 11.9011C9.39687 11.8339 9.25518 11.7991 9.11145 11.7995H2.89158Z" stroke="white" stroke-width="1.66667" stroke-linecap="round" stroke-linejoin="round"/>
</svg>
